<svg xmlns="http://www.w3.org/2000/svg" width="419.999" height="64" viewBox="0 0 419.999 64"><g transform="translate(10470 15268.622)"><path d="M2.349,15.024V-18.552H7.4a22.123,22.123,0,0,1,5.376.522,8.079,8.079,0,0,1,3.417,1.761,9.14,9.14,0,0,1,2.242,3.2,9.666,9.666,0,0,1,.849,3.914,7.93,7.93,0,0,1-2.764,6.111A8.12,8.12,0,0,1,20.739.15a9.011,9.011,0,0,1,1.567,5.263,8.939,8.939,0,0,1-2.786,6.654,9.144,9.144,0,0,1-3.765,2.327,21.916,21.916,0,0,1-5.724.631ZM7.419-4.134H9.008a5.859,5.859,0,0,0,4.146-1.25A4.848,4.848,0,0,0,14.471-9.07a4.622,4.622,0,0,0-1.349-3.6A5.627,5.627,0,0,0,9.2-13.9H7.419Zm0,14.4h3.134q3.439,0,5.049-1.348a4.66,4.66,0,0,0,1.7-3.7,4.734,4.734,0,0,0-1.632-3.653Q14.079.106,9.988.106H7.419ZM47.943,6.869H33.557l-3.743,8.155H24.351L40.979-20.661l16.04,35.685h-5.55ZM45.875,2.107,40.892-9.31,35.668,2.107ZM80.218-13.55,76.1-11.115a7.066,7.066,0,0,0-2.2-2.61,5.131,5.131,0,0,0-2.807-.7,5.188,5.188,0,0,0-3.5,1.2A3.706,3.706,0,0,0,66.2-10.266q0,2.457,3.656,3.958l3.352,1.37A14.309,14.309,0,0,1,79.2-.9a9.087,9.087,0,0,1,1.893,5.839A10.254,10.254,0,0,1,78,12.589a10.612,10.612,0,0,1-7.726,3.044,10.34,10.34,0,0,1-7.225-2.588,11.911,11.911,0,0,1-3.5-7.285L64.679,4.63A8.724,8.724,0,0,0,65.9,8.718a5.794,5.794,0,0,0,8.509.587,5.49,5.49,0,0,0,1.567-4.023A5.641,5.641,0,0,0,75.7,3.488a4.551,4.551,0,0,0-.849-1.5A6.782,6.782,0,0,0,73.363.7,14.366,14.366,0,0,0,71.186-.437L67.943-1.786q-6.9-2.914-6.9-8.524a8.085,8.085,0,0,1,2.895-6.328,10.463,10.463,0,0,1,7.2-2.566Q76.953-19.2,80.218-13.55Zm25.528-.239H92.275v8.068h13.08V-.959H92.275V10.262h13.472v4.762H87.2V-18.552h18.542Zm29.685,0V15.024h-5.071V-13.789h-7.726v-4.762h20.5v4.762Zm30.773,0H152.734v8.068h13.08V-.959h-13.08V10.262h13.472v4.762H147.663V-18.552h18.542Zm5.484,28.813,7.073-36.1L190.3,5.021l11.948-26.1,6.355,36.1h-5.2L200.156-5.243,190.21,16.568,180.547-5.265l-3.613,20.289Zm49.1-13.635V15.024h-5.071V-18.552h5.746a25.935,25.935,0,0,1,6.377.587,8.553,8.553,0,0,1,3.83,2.218,9.551,9.551,0,0,1,2.895,7.133,9.2,9.2,0,0,1-3.09,7.307,12.235,12.235,0,0,1-8.335,2.7Zm0-4.7h1.893q6.986,0,6.986-5.371,0-5.2-7.2-5.2h-1.676Zm24.07-15.244V10.262h9.881v4.762H239.787V-18.552Zm36.3,25.421H266.774l-3.743,8.155h-5.463l16.627-35.685,16.04,35.685h-5.55Zm-2.068-4.762L274.108-9.31,268.885,2.107Zm22.743-15.9V15.024h-5.071V-13.789h-7.726v-4.762h20.5v4.762Zm30.773,0H319.136v8.068h13.08V-.959h-13.08V10.262h13.472v4.762H314.065V-18.552h18.542Z" transform="translate(-10382.608 -15232.049)" fill="#ef6d58"/><path d="M34.5,58.567A20.283,20.283,0,0,1,20.7,64C9.267,64,0,54.449,0,42.667A21.309,21.309,0,0,1,13.833,22.535q-.032-.6-.032-1.2C13.8,9.551,23.068,0,34.5,0S55.2,9.551,55.2,21.333q0,.605-.032,1.2A21.309,21.309,0,0,1,69,42.667C69,54.449,59.733,64,48.3,64A20.283,20.283,0,0,1,34.5,58.567Z" transform="translate(-10470 -15268.622)" fill="#ef6d58"/></g></svg>